<svg width="71" height="70" viewBox="0 0 71 70" fill="none" xmlns="http://www.w3.org/2000/svg">
<path d="M19.8529 56.6177L1 0.686275H10.0773L21.2494 33.9705L35.5637 0H36.611L50.9252 33.9705L61.9227 0.686275H71L52.3217 56.6177H51.2743L35.9127 21.103L20.9002 56.6177H19.8529Z" fill="#CA2E70"/>
<path d="M10.7351 61.3544L8.79677 68.9585H6.96497L5.93192 64.9648C5.91062 64.8867 5.88222 64.7695 5.84672 64.6133C5.81832 64.4571 5.78282 64.2867 5.74022 64.1021C5.70472 63.9175 5.67277 63.7436 5.64437 63.5803C5.61597 63.4099 5.59467 63.2785 5.58047 63.1862C5.57337 63.2785 5.55207 63.4099 5.51657 63.5803C5.48817 63.7436 5.45622 63.9175 5.42072 64.1021C5.38522 64.2796 5.34972 64.45 5.31422 64.6133C5.27872 64.7695 5.25032 64.8902 5.22902 64.9754L4.20662 68.9585H2.37482L0.436523 61.3544H2.02337L2.99252 65.5079C3.03512 65.6712 3.08127 65.8771 3.13097 66.1256C3.18067 66.3741 3.22682 66.6226 3.26942 66.8711C3.31202 67.1196 3.34397 67.3291 3.36527 67.4995C3.38657 67.322 3.41852 67.1125 3.46112 66.8711C3.50372 66.6226 3.54632 66.3848 3.58892 66.1576C3.63862 65.9233 3.68122 65.7422 3.71672 65.6144L4.82432 61.3544H6.34727L7.45487 65.6144C7.49037 65.7351 7.52942 65.9126 7.57202 66.1469C7.62172 66.3812 7.66787 66.6226 7.71047 66.8711C7.75307 67.1196 7.78502 67.3291 7.80632 67.4995C7.82762 67.322 7.85957 67.1125 7.90217 66.8711C7.94477 66.6226 7.99092 66.3741 8.04062 66.1256C8.09742 65.8771 8.14357 65.6712 8.17907 65.5079L9.14822 61.3544H10.7351ZM16.4945 68.9585H12.1174V61.3544H16.4945V62.675H13.7256V64.3471H16.3028V65.6677H13.7256V67.6273H16.4945V68.9585ZM20.8672 61.3544C21.8825 61.3544 22.6493 61.4964 23.1676 61.7804C23.6859 62.0644 23.9449 62.565 23.9449 63.2821C23.9449 63.7152 23.8421 64.0808 23.6362 64.379C23.4374 64.6772 23.1497 64.8583 22.7734 64.9222V64.9754C23.029 65.0251 23.2599 65.1139 23.4658 65.2417C23.6717 65.3695 23.835 65.5541 23.9557 65.7955C24.0764 66.0369 24.1366 66.3564 24.1366 66.754C24.1366 67.4427 23.8881 67.9823 23.3911 68.3728C22.8941 68.7633 22.2125 68.9585 21.3463 68.9585H18.5029V61.3544H20.8672ZM21.0481 64.3684C21.5167 64.3684 21.8399 64.2938 22.0174 64.1447C22.202 63.9956 22.2943 63.7791 22.2943 63.4951C22.2943 63.204 22.1878 62.9945 21.9748 62.8667C21.7618 62.7389 21.4244 62.675 20.9629 62.675H20.1109V64.3684H21.0481ZM20.1109 65.6464V67.6273H21.1654C21.6482 67.6273 21.9853 67.535 22.177 67.3504C22.3687 67.1587 22.4647 66.9066 22.4647 66.5942C22.4647 66.3102 22.3653 66.083 22.1665 65.9126C21.9748 65.7351 21.6232 65.6464 21.112 65.6464H20.1109ZM32.272 66.2747C32.272 66.8001 32.1547 67.2758 31.9204 67.7018C31.6932 68.1207 31.3453 68.4544 30.8767 68.7029C30.4152 68.9443 29.8296 69.065 29.1196 69.065C28.1114 69.065 27.3446 68.8094 26.8192 68.2982C26.2938 67.7799 26.0311 67.0983 26.0311 66.2534V61.3544H27.6391V66.0085C27.6391 66.6333 27.7669 67.0735 28.0225 67.3291C28.2781 67.5847 28.6581 67.7125 29.1622 67.7125C29.6876 67.7125 30.0673 67.574 30.3016 67.2971C30.543 67.0202 30.6637 66.5871 30.6637 65.9978V61.3544H32.272V66.2747ZM36.9245 64.4855L38.5113 61.3544H40.2473L37.7232 65.9978V68.9585H36.1257V66.0511L33.6017 61.3544H35.3483L36.9245 64.4855ZM50.9721 61.3544L49.0338 68.9585H47.202L46.1689 64.9648C46.1476 64.8867 46.1192 64.7695 46.0837 64.6133C46.0553 64.4571 46.0198 64.2867 45.9772 64.1021C45.9417 63.9175 45.9098 63.7436 45.8814 63.5803C45.853 63.4099 45.8317 63.2785 45.8175 63.1862C45.8104 63.2785 45.7891 63.4099 45.7536 63.5803C45.7252 63.7436 45.6932 63.9175 45.6577 64.1021C45.6222 64.2796 45.5867 64.45 45.5512 64.6133C45.5157 64.7695 45.4873 64.8902 45.466 64.9754L44.4436 68.9585H42.6118L40.6735 61.3544H42.2604L43.2295 65.5079C43.2721 65.6712 43.3183 65.8771 43.368 66.1256C43.4177 66.3741 43.4638 66.6226 43.5064 66.8711C43.549 67.1196 43.581 67.3291 43.6023 67.4995C43.6236 67.322 43.6555 67.1125 43.6981 66.8711C43.7407 66.6226 43.7833 66.3848 43.8259 66.1576C43.8756 65.9233 43.9182 65.7422 43.9537 65.6144L45.0613 61.3544H46.5843L47.6919 65.6144C47.7274 65.7351 47.7664 65.9126 47.809 66.1469C47.8587 66.3812 47.9049 66.6226 47.9475 66.8711C47.9901 67.1196 48.022 67.3291 48.0433 67.4995C48.0646 67.322 48.0966 67.1125 48.1392 66.8711C48.1818 66.6226 48.2279 66.3741 48.2776 66.1256C48.3344 65.8771 48.3806 65.6712 48.4161 65.5079L49.3852 61.3544H50.9721ZM59.1516 65.1458C59.1516 65.9339 59.0204 66.6226 58.7577 67.2119C58.5021 67.7941 58.1079 68.2485 57.5754 68.5751C57.0429 68.9017 56.3613 69.065 55.5306 69.065C54.707 69.065 54.0254 68.9017 53.4858 68.5751C52.9533 68.2485 52.5557 67.7906 52.293 67.2013C52.0374 66.612 51.9096 65.9233 51.9096 65.1352C51.9096 64.3471 52.0374 63.6619 52.293 63.0797C52.5557 62.4975 52.9533 62.0467 53.4858 61.7272C54.0254 61.4006 54.7107 61.2373 55.5414 61.2373C56.365 61.2373 57.0429 61.4006 57.5754 61.7272C58.1079 62.0467 58.5021 62.5011 58.7577 63.0904C59.0204 63.6726 59.1516 64.3577 59.1516 65.1458ZM53.6031 65.1458C53.6031 65.941 53.7556 66.5694 54.0609 67.0309C54.3662 67.4853 54.8561 67.7125 55.5306 67.7125C56.2193 67.7125 56.7129 67.4853 57.0111 67.0309C57.3093 66.5694 57.4583 65.941 57.4583 65.1458C57.4583 64.3435 57.3093 63.7152 57.0111 63.2608C56.7129 62.8064 56.223 62.5792 55.5414 62.5792C54.8598 62.5792 54.3662 62.8064 54.0609 63.2608C53.7556 63.7152 53.6031 64.3435 53.6031 65.1458ZM70.3889 61.3544L68.4506 68.9585H66.6188L65.5856 64.9648C65.5643 64.8867 65.5359 64.7695 65.5004 64.6133C65.472 64.4571 65.4365 64.2867 65.3939 64.1021C65.3584 63.9175 65.3266 63.7436 65.2982 63.5803C65.2698 63.4099 65.2485 63.2785 65.2343 63.1862C65.2272 63.2785 65.2059 63.4099 65.1704 63.5803C65.142 63.7436 65.1099 63.9175 65.0744 64.1021C65.0389 64.2796 65.0034 64.45 64.9679 64.6133C64.9324 64.7695 64.904 64.8902 64.8827 64.9754L63.8603 68.9585H62.0285L60.0902 61.3544H61.6772L62.6462 65.5079C62.6888 65.6712 62.7351 65.8771 62.7848 66.1256C62.8345 66.3741 62.8805 66.6226 62.9231 66.8711C62.9657 67.1196 62.9978 67.3291 63.0191 67.4995C63.0404 67.322 63.0722 67.1125 63.1148 66.8711C63.1574 66.6226 63.2 66.3848 63.2426 66.1576C63.2923 65.9233 63.3349 65.7422 63.3704 65.6144L64.478 61.3544H66.0011L67.1087 65.6144C67.1442 65.7351 67.1831 65.9126 67.2257 66.1469C67.2754 66.3812 67.3217 66.6226 67.3643 66.8711C67.4069 67.1196 67.4387 67.3291 67.46 67.4995C67.4813 67.322 67.5134 67.1125 67.556 66.8711C67.5986 66.6226 67.6446 66.3741 67.6943 66.1256C67.7511 65.8771 67.7974 65.6712 67.8329 65.5079L68.8019 61.3544H70.3889Z" fill="black"/>
</svg>
